<svg xmlns:dc="http://purl.org/dc/elements/1.1/" xmlns:cc="http://creativecommons.org/ns#" xmlns:rdf="http://www.w3.org/1999/02/22-rdf-syntax-ns#" xmlns:svg="http://www.w3.org/2000/svg" xmlns="http://www.w3.org/2000/svg" id="svg2" xml:space="preserve">
   <title id="title4227">Eye of Horus symbol</title>
   <g transform="translate(-124.24451,-106.59382)" id="DV1_x5F_Layer_x5F_1">
      <g id="XMLID_1_">
         <g id="g45">
            <path id="path47" d="m 535.05,184.22 c 0.08,0.86 -0.35,1.67 -1.33,2.31 c -0.99,0.64 -2.54,1.11 -6.44,1.36 c -3.89,0.25 -10.12,0.28 -17.55,-0.39 c -7.43,-0.67 -16.05,-2.03 -24.37,-3.38 c -8.32,-1.35 -16.33,-2.68 -26.31,-5.15 c -9.97,-2.46 -21.91,-6.05 -32.52,-9.51 c -10.62,-3.46 -19.91,-6.8 -31.49,-9.56 c -11.57,-2.75 -25.43,-4.92 -37.46,-5.87 c -12.03,-0.94 -22.24,-0.67 -32.77,0.24 c -10.53,0.9 -21.39,2.43 -32.67,4.91 c -11.28,2.48 -22.99,5.9 -32.77,8.58 c -9.78,2.69 -17.63,4.63 -27.76,7.19 c -10.12,2.56 -22.53,5.74 -32.8,8.06 c -10.27,2.32 -18.39,3.8 -26.57,4.31 c -8.18,0.52 -16.41,0.07 -22.17,-0.87 c -5.76,-0.95 -9.05,-2.4 -11.05,-3.86 c -2,-1.46 -2.73,-2.93 -2.73,-3.88 c 0,-0.95 0.73,-1.36 1.74,-1.47 c 1.02,-0.12 2.33,0.08 6.21,0.52 c 3.88,0.45 10.33,1.15 16.32,1.02 c 5.98,-0.13 11.49,-1.07 18.32,-2.71 c 6.83,-1.64 14.98,-3.98 23.15,-6.51 c 8.16,-2.54 16.34,-5.26 22.42,-7.31 c 6.08,-2.04 10.06,-3.4 20.13,-6.47 c 10.07,-3.06 26.24,-7.81 38.03,-10.96 c 11.8,-3.14 19.23,-4.67 27.24,-6.03 c 8.01,-1.37 16.61,-2.56 24.97,-3.07 c 8.36,-0.5 16.49,-0.3 24.96,0.63 c 8.47,0.93 17.29,2.6 26.6,4.9 c 9.3,2.29 19.1,5.21 30.52,8.93 c 11.42,3.71 24.47,8.22 38.33,12.74 c 13.85,4.52 28.51,9.06 39.66,11.91 c 11.14,2.85 18.76,4.02 24.15,4.6 c 5.38,0.59 8.52,0.59 10.61,0.84 c 2.09,0.25 3.12,0.75 3.92,1.46 c 0.81,0.71 1.39,1.63 1.48,2.49 z"/>
            <path id="path49" d="m 531.88,214.28 c 0.74,1.04 1.06,2.35 0.55,3.78 c -0.51,1.44 -1.86,3 -6.67,3.9 c -4.82,0.91 -13.41,2.02 -21.18,3.59 c -7.76,1.57 -14.69,3.6 -22.14,6.51 c -7.46,2.91 -15.45,6.69 -20.84,9.53 c -5.4,2.84 -8.21,4.73 -10.58,7.22 c -2.36,2.49 -4.28,5.58 -5.2,9.11 c -0.92,3.54 -0.83,7.51 -0.28,11.53 c 0.56,4.02 1.59,8.09 2.9,11.52 c 1.3,3.44 2.89,6.25 5.39,8.66 c 2.51,2.4 5.93,4.41 10.34,5.73 c 4.41,1.32 9.81,1.96 14.47,2 c 4.66,0.04 8.58,-0.51 11.57,-1.43 c 2.99,-0.92 5.05,-2.2 6.85,-2.99 c 1.79,-0.8 3.32,-1.1 4.42,-0.81 c 1.1,0.29 1.77,1.18 1.86,2.27 c 0.1,1.08 -0.37,2.36 -2.08,4.25 c -1.71,1.9 -4.66,4.4 -8.64,8.57 c -3.98,4.18 -8.99,10.02 -13.52,15.82 c -4.54,5.8 -8.6,11.56 -14.12,21.59 c -5.53,10.03 -12.51,24.33 -16.96,33.72 c -4.45,9.39 -6.37,13.87 -7.79,16.75 c -1.42,2.88 -2.34,4.16 -3.1,4.86 c -0.77,0.69 -1.38,0.8 -2.02,0.57 c -0.64,-0.24 -1.31,-0.82 -1.63,-1.67 c -0.32,-0.85 -0.29,-1.96 -0.18,-9.63 c 0.11,-7.66 0.31,-21.88 0.32,-34.35 c 0.01,-12.46 -0.15,-23.17 -0.18,-34.86 c -0.03,-11.68 0.08,-24.34 0.14,-33.5 c 0.05,-9.15 0.05,-14.8 -0.13,-18.64 c -0.11,-2.41 -0.29,-4.11 -0.52,-5.35 c -0.42,-2.28 -2.98,-3.44 -4.97,-2.25 c -16.73,10.01 -26.5,19.18 -36.12,29.38 c -9.81,10.41 -19.45,21.87 -29.27,32.44 c -9.81,10.56 -19.8,20.21 -30.54,30.13 c -10.75,9.92 -22.25,20.1 -34.6,28.58 c -12.36,8.48 -25.58,15.26 -37.88,19.8 c -12.3,4.54 -23.69,6.84 -36.1,7.47 c -12.41,0.62 -25.84,-0.43 -37.73,-5.08 c -11.88,-4.64 -22.21,-12.88 -28.28,-24.04 c -6.06,-11.17 -7.86,-25.26 -5.13,-36.85 c 2.73,-11.59 9.99,-20.68 19.5,-25.67 c 9.51,-4.99 21.28,-5.87 31.32,-3.33 c 10.04,2.54 18.35,8.5 23.12,15.72 c 4.77,7.21 6,15.68 4.84,23 c -1.04,6.6 -4.03,12.28 -8.87,16.7 c -10.4,9.47 -26.76,7.57 -34.71,-4.04 c -7.94,-11.6 -3.79,-27.55 8.8,-33.81 c 2.99,-1.49 2.15,-5.96 -1.17,-6.28 c -0.39,-0.03 -0.77,-0.06 -1.16,-0.09 c -1.67,-0.1 -3.34,-0.08 -5,0.06 c -3.23,0.27 -6.44,0.99 -9.42,2.25 c -1.39,0.59 -2.73,1.29 -4,2.12 c -1.26,0.83 -2.45,1.77 -3.54,2.82 c -2.27,2.17 -4.12,4.76 -5.48,7.59 c -0.73,1.51 -1.32,3.1 -1.76,4.72 c -0.49,1.77 -0.81,3.59 -0.99,5.42 c -0.2,2.01 -0.25,4.03 -0.15,6.04 c 0.11,2.1 0.36,4.19 0.77,6.25 c 0.41,2.07 0.96,4.1 1.67,6.08 c 0.68,1.9 1.5,3.76 2.48,5.54 c 1.91,3.46 4.43,6.59 7.34,9.28 c 1.5,1.38 3.11,2.65 4.79,3.81 c 1.74,1.19 3.56,2.26 5.44,3.2 c 1.92,0.97 3.9,1.8 5.93,2.51 c 2.1,0.74 4.26,1.33 6.43,1.83 c 4.58,1.03 9.25,1.58 13.94,1.79 c 2.39,0.11 4.79,0.12 7.18,0.07 c 3.64,-0.08 7.27,-0.32 10.87,-0.75 c 4.54,-0.54 9.03,-1.37 13.45,-2.51 c 2.29,-0.59 4.56,-1.26 6.81,-2 c 2.38,-0.78 4.73,-1.63 7.06,-2.55 c 5.06,-1.98 9.99,-4.26 14.81,-6.77 c 5.13,-2.66 10.13,-5.58 14.96,-8.76 c 4.97,-3.27 9.76,-6.81 14.41,-10.53 c 4.77,-3.81 9.4,-7.81 13.95,-11.87 c 4.54,-4.05 9,-8.17 13.42,-12.34 c 4.27,-4.02 8.49,-8.08 12.64,-12.22 c 4.13,-4.12 8.18,-8.32 12.14,-12.6 c 4.21,-4.56 8.33,-9.21 12.45,-13.86 c 4.27,-4.81 8.54,-9.63 12.9,-14.36 c 2.67,-2.9 5.37,-5.77 8.15,-8.56 c 0.35,-0.36 0.7,-0.71 1.06,-1.06 c 2.3,-2.29 0.29,-6.19 -2.91,-5.63 c -4.73,0.83 -11.13,1.83 -19.31,2.72 c -12.96,1.41 -30.41,2.52 -47.2,2.09 c -16.79,-0.43 -32.93,-2.41 -45.74,-4.72 c -12.81,-2.31 -22.3,-4.95 -33.85,-8.87 c -11.54,-3.93 -25.15,-9.13 -35.25,-13.08 c -10.1,-3.95 -16.69,-6.65 -22.4,-8.78 c -5.7,-2.13 -10.51,-3.68 -14.71,-4.39 c -4.2,-0.71 -7.79,-0.57 -11.17,0.05 c -3.38,0.62 -6.54,1.72 -9.28,3.6 c -2.74,1.88 -5.06,4.53 -6.81,6.19 c -1.75,1.66 -2.93,2.33 -3.81,1.79 c -0.87,-0.55 -1.44,-2.3 -1.71,-4.36 c -0.26,-2.06 -0.22,-4.42 -0.29,-6.87 c -0.06,-2.46 -0.23,-5 -0.46,-7.04 c -0.22,-2.05 -0.49,-3.6 -0.46,-4.94 c 0.02,-1.35 0.34,-2.49 0.97,-3.18 c 0.63,-0.7 1.58,-0.95 4.75,-1.34 c 3.17,-0.39 8.57,-0.92 14.63,-1.68 c 6.07,-0.77 12.8,-1.77 18.69,-3.01 c 5.88,-1.24 10.92,-2.71 14.67,-3.86 c 3.76,-1.16 6.23,-1.99 18.3,-5.82 c 12.06,-3.83 33.7,-10.64 52.71,-15.97 c 19,-5.33 35.36,-9.17 47.93,-11.43 c 12.58,-2.27 21.37,-2.97 29.9,-3.29 c 8.53,-0.32 16.79,-0.26 26.74,0.92 c 9.94,1.18 21.57,3.49 34.62,6.97 c 13.05,3.48 27.52,8.12 38.95,11.94 c 11.44,3.81 19.84,6.78 28.72,9.41 c 8.87,2.63 18.22,4.91 25.11,6.24 c 6.88,1.32 11.31,1.68 16.4,1.92 c 5.09,0.23 10.85,0.34 14.88,0.58 c 4.04,0.24 5.79,0.42 7.24,0.89 c 1.45,0.48 2.6,1.25 3.34,2.28 z M 474.12,223 c 2.94,-1.23 2.63,-5.5 -0.46,-6.28 c -0.71,-0.18 -1.43,-0.37 -2.14,-0.55 c -2.25,-0.59 -4.5,-1.2 -6.73,-1.84 c -2.46,-0.7 -4.9,-1.43 -7.34,-2.19 c -5.86,-1.82 -11.66,-3.8 -17.47,-5.76 c -6.72,-2.27 -13.45,-4.52 -20.21,-6.67 c -3.78,-1.21 -7.57,-2.38 -11.36,-3.53 c -1.41,-0.42 -2.81,-0.84 -4.22,-1.25 c -2.91,-0.85 -5.35,2.33 -3.76,4.92 c 8.84,14.42 4.12,30.09 -8.19,40.39 c -11.58,9.69 -27.84,13.45 -42.39,12.5 C 335.5,251.8 319.45,245.96 310.2,233.8 c -10.17,-13.37 -8.09,-29.39 3.57,-40.92 c 2.31,-2.28 0.31,-6.17 -2.89,-5.63 c -2.19,0.37 -4.39,0.77 -6.57,1.2 c -4.04,0.78 -8.07,1.64 -12.08,2.55 c -9.8,2.22 -19.53,4.74 -29.22,7.43 c -5.54,1.53 -11.07,3.13 -16.58,4.77 c -5.49,1.62 -10.96,3.29 -16.42,4.97 c -8.4,2.59 -16.79,5.21 -25.16,7.89 c -4.8,1.54 -9.6,3.1 -14.42,4.59 c -1.12,0.34 -2.35,0.71 -3.7,1.1 c -3.07,0.89 -3.23,5.17 -0.25,6.3 c 1.31,0.49 2.61,0.99 3.91,1.5 c 5.26,2.04 10.49,4.13 15.73,6.2 c 6.83,2.69 13.69,5.33 20.57,7.89 c 3.71,1.39 7.43,2.75 11.15,4.07 c 3.46,1.22 6.92,2.41 10.4,3.53 c 3.16,1.02 6.34,1.99 9.54,2.86 c 3.2,0.88 6.43,1.66 9.67,2.37 c 3.62,0.79 7.26,1.48 10.91,2.09 c 4.2,0.71 8.41,1.33 12.63,1.86 c 9.51,1.19 19.08,1.95 28.67,2.19 c 5.03,0.13 10.07,0.12 15.1,-0.01 c 4.87,-0.12 9.73,-0.34 14.58,-0.65 c 1.56,-0.1 3.12,-0.21 4.67,-0.33 c 35.37,-2.68 69.78,-12.76 101,-29.58 c 1.16,-0.62 2.33,-1.23 3.51,-1.83 c 2.61,-1.32 5.24,-2.59 7.9,-3.82 c 2.54,-1.18 5.11,-2.31 7.7,-3.39 z"/>
         </g>
         <g id="g51">
            <path style="fill:none;stroke:#000000;stroke-width:0.5;stroke-linecap:round;stroke-linejoin:round" id="path53" d="m 222.22,368.53 c -10.4,9.47 -26.76,7.57 -34.71,-4.04 c -7.94,-11.6 -3.79,-27.55 8.8,-33.81"/>
            <path style="fill:none;stroke:#000000;stroke-width:0.5;stroke-linecap:round;stroke-linejoin:round" id="path55" d="m 195.14,324.4 c 3.32,0.32 4.16,4.79 1.17,6.28"/>
            <path style="fill:none;stroke:#000000;stroke-width:0.5;stroke-linecap:round;stroke-linejoin:round" id="path57" d="m 388.69,274.95 c -0.36,0.35 -0.71,0.7 -1.06,1.06 c -2.78,2.79 -5.48,5.66 -8.15,8.56 c -4.36,4.73 -8.63,9.55 -12.9,14.36 c -4.12,4.65 -8.24,9.3 -12.45,13.86 c -3.96,4.28 -8.01,8.48 -12.14,12.6 c -4.15,4.14 -8.37,8.2 -12.64,12.22 c -4.42,4.17 -8.88,8.29 -13.42,12.34 c -4.55,4.06 -9.18,8.06 -13.95,11.87 c -4.65,3.72 -9.44,7.26 -14.41,10.53 c -4.83,3.18 -9.83,6.1 -14.96,8.76 c -4.82,2.51 -9.75,4.79 -14.81,6.77 c -2.33,0.92 -4.68,1.77 -7.06,2.55 c -2.25,0.74 -4.52,1.41 -6.81,2 c -4.42,1.14 -8.91,1.97 -13.45,2.51 c -3.6,0.43 -7.23,0.67 -10.87,0.75 c -2.39,0.05 -4.79,0.04 -7.18,-0.07 c -4.69,-0.21 -9.36,-0.76 -13.94,-1.79 c -2.17,-0.5 -4.33,-1.09 -6.43,-1.83 c -2.03,-0.71 -4.01,-1.54 -5.93,-2.51 c -1.88,-0.94 -3.7,-2.01 -5.44,-3.2 c -1.68,-1.16 -3.29,-2.43 -4.79,-3.81 c -2.91,-2.69 -5.43,-5.82 -7.34,-9.28 c -0.98,-1.78 -1.8,-3.64 -2.48,-5.54 c -0.71,-1.98 -1.26,-4.01 -1.67,-6.08 c -0.41,-2.06 -0.66,-4.15 -0.77,-6.25 c -0.1,-2.01 -0.05,-4.03 0.15,-6.04 c 0.18,-1.83 0.5,-3.65 0.99,-5.42 c 0.44,-1.62 1.03,-3.21 1.76,-4.72 c 1.36,-2.83 3.21,-5.42 5.48,-7.59 c 1.09,-1.05 2.28,-1.99 3.54,-2.82 c 1.27,-0.83 2.61,-1.53 4,-2.12 c 2.98,-1.26 6.19,-1.98 9.42,-2.25 c 1.66,-0.14 3.33,-0.16 5,-0.06 c 0.39,0.03 0.77,0.06 1.16,0.09"/>
            <path style="fill:none;stroke:#000000;stroke-width:0.5;stroke-linecap:round;stroke-linejoin:round" id="path59" d="m 427.96,260.28 c -16.73,10.01 -26.5,19.18 -36.12,29.38 c -9.81,10.41 -19.45,21.87 -29.27,32.44 c -9.81,10.56 -19.8,20.21 -30.54,30.13 c -10.75,9.92 -22.25,20.1 -34.6,28.58 c -12.36,8.48 -25.58,15.26 -37.88,19.8 c -12.3,4.54 -23.69,6.84 -36.1,7.47 c -12.41,0.62 -25.84,-0.43 -37.73,-5.08 c -11.88,-4.64 -22.21,-12.88 -28.28,-24.04 c -6.06,-11.17 -7.86,-25.26 -5.13,-36.85 c 2.73,-11.59 9.99,-20.68 19.5,-25.67 c 9.51,-4.99 21.28,-5.87 31.32,-3.33 c 10.04,2.54 18.35,8.5 23.12,15.72 c 4.77,7.21 6,15.68 4.84,23 c -1.04,6.6 -4.03,12.28 -8.87,16.7"/>
            <path style="fill:none;stroke:#000000;stroke-width:0.5;stroke-linecap:round;stroke-linejoin:round" id="path61" d="m 427.96,260.28 c 1.99,-1.19 4.55,-0.03 4.97,2.25"/>
            <path style="fill:none;stroke:#000000;stroke-width:0.5;stroke-linecap:round;stroke-linejoin:round" id="path63" d="m 385.78,269.32 c 3.2,-0.56 5.21,3.34 2.91,5.63"/>
            <path style="fill:none;stroke:#000000;stroke-width:0.5;stroke-linecap:round;stroke-linejoin:round" id="path65" d="m 354.01,261.62 c 35.37,-2.68 69.78,-12.76 101,-29.58"/>
            <path style="fill:none;stroke:#000000;stroke-width:0.5;stroke-linecap:round;stroke-linejoin:round" id="path67" d="m 473.66,216.72 c -0.71,-0.18 -1.43,-0.37 -2.14,-0.55 c -2.25,-0.59 -4.5,-1.2 -6.73,-1.84 c -2.46,-0.7 -4.9,-1.43 -7.34,-2.19 c -5.86,-1.82 -11.66,-3.8 -17.47,-5.76 c -6.72,-2.27 -13.45,-4.52 -20.21,-6.67 c -3.78,-1.21 -7.57,-2.38 -11.36,-3.53 c -1.41,-0.42 -2.81,-0.84 -4.22,-1.25"/>
            <path style="fill:none;stroke:#000000;stroke-width:0.5;stroke-linecap:round;stroke-linejoin:round" id="path69" d="m 313.77,192.88 c -11.66,11.53 -13.74,27.55 -3.57,40.92 c 9.25,12.16 25.3,18 39.65,18.94 c 14.55,0.95 30.81,-2.81 42.39,-12.5 c 12.31,-10.3 17.03,-25.97 8.19,-40.39"/>
            <path style="fill:none;stroke:#000000;stroke-width:0.5;stroke-linecap:round;stroke-linejoin:round" id="path71" d="m 310.88,187.25 c 3.2,-0.54 5.2,3.35 2.89,5.63"/>
            <path style="fill:none;stroke:#000000;stroke-width:0.5;stroke-linecap:round;stroke-linejoin:round" id="path73" d="m 400.43,199.85 c -1.59,-2.59 0.85,-5.77 3.76,-4.92"/>
            <path style="fill:none;stroke:#000000;stroke-width:0.5;stroke-linecap:round;stroke-linejoin:round" id="path75" d="m 474.12,223 c 2.94,-1.23 2.63,-5.5 -0.46,-6.28"/>
            <path style="fill:none;stroke:#000000;stroke-width:0.5;stroke-linecap:round;stroke-linejoin:round" id="path77" d="m 186.73,221.75 c -3.07,0.89 -3.23,5.17 -0.25,6.3"/>
            <path style="fill:none;stroke:#000000;stroke-width:0.5;stroke-linecap:round;stroke-linejoin:round" id="path79" d="m 186.48,228.05 c 1.31,0.49 2.61,0.99 3.91,1.5 c 5.26,2.04 10.49,4.13 15.73,6.2 c 6.83,2.69 13.69,5.33 20.57,7.89 c 3.71,1.39 7.43,2.75 11.15,4.07 c 3.46,1.22 6.92,2.41 10.4,3.53 c 3.16,1.02 6.34,1.99 9.54,2.86 c 3.2,0.88 6.43,1.66 9.67,2.37 c 3.62,0.79 7.26,1.48 10.91,2.09 c 4.2,0.71 8.41,1.33 12.63,1.86 c 9.51,1.19 19.08,1.95 28.67,2.19 c 5.03,0.13 10.07,0.12 15.1,-0.01 c 4.87,-0.12 9.73,-0.34 14.58,-0.65 c 1.56,-0.1 3.12,-0.21 4.67,-0.33"/>
            <path style="fill:none;stroke:#000000;stroke-width:0.5;stroke-linecap:round;stroke-linejoin:round" id="path81" d="m 310.88,187.25 c -2.19,0.37 -4.39,0.77 -6.57,1.2 c -4.04,0.78 -8.07,1.64 -12.08,2.55 c -9.8,2.22 -19.53,4.74 -29.22,7.43 c -5.54,1.53 -11.07,3.13 -16.58,4.77 c -5.49,1.62 -10.96,3.29 -16.42,4.97 c -8.4,2.59 -16.79,5.21 -25.16,7.89 c -4.8,1.54 -9.6,3.1 -14.42,4.59"/>
            <path style="fill:none;stroke:#000000;stroke-width:0.5;stroke-linecap:round;stroke-linejoin:round" id="path83" d="m 190.43,220.65 c -1.12,0.34 -2.35,0.71 -3.7,1.1"/>
            <path style="fill:none;stroke:#000000;stroke-width:0.5;stroke-linecap:round;stroke-linejoin:round" id="path85" d="m 455.01,232.04 c 1.16,-0.62 2.33,-1.23 3.51,-1.83 c 2.61,-1.32 5.24,-2.59 7.9,-3.82 c 2.54,-1.18 5.11,-2.31 7.7,-3.39"/>
            <path style="fill:none;stroke:#000000;stroke-width:0.5;stroke-linecap:round;stroke-linejoin:round" id="path87" d="m 432.93,262.53 c 0.23,1.24 0.41,2.94 0.52,5.35 c 0.18,3.84 0.18,9.49 0.13,18.64 c -0.06,9.16 -0.17,21.82 -0.14,33.5 c 0.03,11.69 0.19,22.4 0.18,34.86 c -0.01,12.47 -0.21,26.69 -0.32,34.35 c -0.11,7.67 -0.14,8.78 0.18,9.63 c 0.32,0.85 0.99,1.43 1.63,1.67 c 0.64,0.23 1.25,0.12 2.02,-0.57 c 0.76,-0.7 1.68,-1.98 3.1,-4.86 c 1.42,-2.88 3.34,-7.36 7.79,-16.75 c 4.45,-9.39 11.43,-23.69 16.96,-33.72 c 5.52,-10.03 9.58,-15.79 14.12,-21.59 c 4.53,-5.8 9.54,-11.64 13.52,-15.82 c 3.98,-4.17 6.93,-6.67 8.64,-8.57 c 1.71,-1.89 2.18,-3.17 2.08,-4.25 c -0.09,-1.09 -0.76,-1.98 -1.86,-2.27 c -1.1,-0.29 -2.63,0.01 -4.42,0.81 c -1.8,0.79 -3.86,2.07 -6.85,2.99 c -2.99,0.92 -6.91,1.47 -11.57,1.43 c -4.66,-0.04 -10.06,-0.68 -14.47,-2 c -4.41,-1.32 -7.83,-3.33 -10.34,-5.73 c -2.5,-2.41 -4.09,-5.22 -5.39,-8.66 c -1.31,-3.43 -2.34,-7.5 -2.9,-11.52 c -0.55,-4.02 -0.64,-7.99 0.28,-11.53 c 0.92,-3.53 2.84,-6.62 5.2,-9.11 c 2.37,-2.49 5.18,-4.38 10.58,-7.22 c 5.39,-2.84 13.38,-6.62 20.84,-9.53 c 7.45,-2.91 14.38,-4.94 22.14,-6.51 c 7.77,-1.57 16.36,-2.68 21.18,-3.59 c 4.81,-0.9 6.16,-2.46 6.67,-3.9 c 0.51,-1.43 0.19,-2.74 -0.55,-3.78 c -0.74,-1.03 -1.89,-1.8 -3.34,-2.28 c -1.45,-0.47 -3.2,-0.65 -7.24,-0.89 c -4.03,-0.24 -9.79,-0.35 -14.88,-0.58 c -5.09,-0.24 -9.52,-0.6 -16.4,-1.92 c -6.89,-1.33 -16.24,-3.61 -25.11,-6.24 c -8.88,-2.63 -17.28,-5.6 -28.72,-9.41 c -11.43,-3.82 -25.9,-8.46 -38.95,-11.94 c -13.05,-3.48 -24.68,-5.79 -34.62,-6.97 c -9.95,-1.18 -18.21,-1.24 -26.74,-0.92 c -8.53,0.32 -17.32,1.02 -29.9,3.29 c -12.57,2.26 -28.93,6.1 -47.93,11.43 c -19.01,5.33 -40.65,12.14 -52.71,15.97 c -12.07,3.83 -14.54,4.66 -18.3,5.82 c -3.75,1.15 -8.79,2.62 -14.67,3.86 c -5.89,1.24 -12.62,2.24 -18.69,3.01 c -6.06,0.76 -11.46,1.29 -14.63,1.68 c -3.17,0.39 -4.12,0.64 -4.75,1.34 c -0.63,0.69 -0.95,1.83 -0.97,3.18 c -0.03,1.34 0.24,2.89 0.46,4.94 c 0.23,2.04 0.4,4.58 0.46,7.04 c 0.07,2.45 0.03,4.81 0.29,6.87 c 0.27,2.06 0.84,3.81 1.71,4.36 c 0.88,0.54 2.06,-0.13 3.81,-1.79 c 1.75,-1.66 4.07,-4.31 6.81,-6.19 c 2.74,-1.88 5.9,-2.98 9.28,-3.6 c 3.38,-0.62 6.97,-0.76 11.17,-0.05 c 4.2,0.71 9.01,2.26 14.71,4.39 c 5.71,2.13 12.3,4.83 22.4,8.78 c 10.1,3.95 23.71,9.15 35.25,13.08 c 11.55,3.92 21.04,6.56 33.85,8.87 c 12.81,2.31 28.95,4.29 45.74,4.72 c 16.79,0.43 34.24,-0.68 47.2,-2.09 c 8.18,-0.89 14.58,-1.89 19.31,-2.72"/>
            <path style="fill:none;stroke:#000000;stroke-width:0.5;stroke-linecap:round;stroke-linejoin:round" id="path89" d="m 224.45,162.25 c -6.08,2.05 -14.26,4.77 -22.42,7.31 c -8.17,2.53 -16.32,4.87 -23.15,6.51 c -6.83,1.64 -12.34,2.58 -18.32,2.71 c -5.99,0.13 -12.44,-0.57 -16.32,-1.02 c -3.88,-0.44 -5.19,-0.64 -6.21,-0.52 c -1.01,0.11 -1.74,0.52 -1.74,1.47 c 0,0.95 0.73,2.42 2.73,3.88 c 2,1.46 5.29,2.91 11.05,3.86 c 5.76,0.94 13.99,1.39 22.17,0.87 c 8.18,-0.51 16.3,-1.99 26.57,-4.31 c 10.27,-2.32 22.68,-5.5 32.8,-8.06 c 10.13,-2.56 17.98,-4.5 27.76,-7.19 c 9.78,-2.68 21.49,-6.1 32.77,-8.58 c 11.28,-2.48 22.14,-4.01 32.67,-4.91 c 10.53,-0.91 20.74,-1.18 32.77,-0.24 c 12.03,0.95 25.89,3.12 37.46,5.87 c 11.58,2.76 20.87,6.1 31.49,9.56 c 10.61,3.46 22.55,7.05 32.52,9.51 c 9.98,2.47 17.99,3.8 26.31,5.15 c 8.32,1.35 16.94,2.71 24.37,3.38 c 7.43,0.67 13.66,0.64 17.55,0.39 c 3.9,-0.25 5.45,-0.72 6.44,-1.36 c 0.98,-0.64 1.41,-1.45 1.33,-2.31 c -0.09,-0.86 -0.67,-1.78 -1.48,-2.49 c -0.8,-0.71 -1.83,-1.21 -3.92,-1.46 c -2.09,-0.25 -5.23,-0.25 -10.61,-0.84 c -5.39,-0.58 -13.01,-1.75 -24.15,-4.6 c -11.15,-2.85 -25.81,-7.39 -39.66,-11.91 c -13.86,-4.52 -26.91,-9.03 -38.33,-12.74 c -11.42,-3.72 -21.22,-6.64 -30.52,-8.93 c -9.31,-2.3 -18.13,-3.97 -26.6,-4.9 c -8.47,-0.93 -16.6,-1.13 -24.96,-0.63 c -8.36,0.51 -16.96,1.7 -24.97,3.07 c -8.01,1.36 -15.44,2.89 -27.24,6.03 c -11.79,3.15 -27.96,7.9 -38.03,10.96 c -10.07,3.07 -14.05,4.43 -20.13,6.47 z"/>
         </g>
      </g>
   </g>
</svg>